<svg xmlns="http://www.w3.org/2000/svg" viewBox="0 0 128 128"><defs>
  <linearGradient id="bg" x1="0" y1="0" x2="1" y2="1"><stop offset="0" stop-color="#2A1A8C"/><stop offset=".55" stop-color="#6D4AFF"/><stop offset="1" stop-color="#C063FF"/></linearGradient>
  <radialGradient id="glow" cx=".28" cy=".18" r=".75"><stop offset="0" stop-color="#fff" stop-opacity=".38"/><stop offset=".7" stop-color="#fff" stop-opacity="0"/></radialGradient>
  <linearGradient id="sh" x1="0" y1="0" x2="0" y2="1"><stop offset="0" stop-color="#FFFDF8"/><stop offset="1" stop-color="#FFE2B0"/></linearGradient>
  <linearGradient id="pet" x1="0" y1="-1" x2="0" y2="0"><stop offset="0" stop-color="#FFD24A"/><stop offset="1" stop-color="#FF8A1F"/></linearGradient>
  <radialGradient id="core" cx=".38" cy=".32" r=".75"><stop offset="0" stop-color="#9A7BFF"/><stop offset="1" stop-color="#2A1A8C"/></radialGradient>
</defs>
<rect x="4" y="4" width="120" height="120" rx="34" fill="url(#bg)"/>
<rect x="4" y="4" width="120" height="120" rx="34" fill="url(#glow)"/>
<rect x="5.5" y="5.5" width="117" height="117" rx="32.5" fill="none" stroke="#fff" stroke-opacity=".22" stroke-width="1.5"/>
<path d="M64 17 L101 29.5 V57 C101 82 85 101.5 64 111 C43 101.5 27 82 27 57 V29.5 Z" fill="#140C4A" opacity=".35" transform="translate(0 4.5)"/>
<path d="M64 17 L101 29.5 V57 C101 82 85 101.5 64 111 C43 101.5 27 82 27 57 V29.5 Z" fill="url(#sh)" stroke="#fff" stroke-width="2.6" stroke-linejoin="round"/>
<path d="M31 63 C38 57 44 69 50 62" stroke="#E11D48" stroke-width="2.6" fill="none" stroke-linecap="round"/>
<path d="M31 67 C38 61 44 73 50 66" stroke="#FFB224" stroke-width="1.8" fill="none" stroke-linecap="round"/>
<path d="M78 62 C84 69 90 57 97 63" stroke="#E11D48" stroke-width="2.6" fill="none" stroke-linecap="round"/>
<path d="M78 66 C84 73 90 61 97 67" stroke="#FFB224" stroke-width="1.8" fill="none" stroke-linecap="round"/>
<g transform="translate(64 63)"><ellipse cx="0" cy="-15" rx="6.6" ry="10.5" transform="rotate(0)" fill="url(#pet)" stroke="#C2410C" stroke-width=".9"/><ellipse cx="0" cy="-15" rx="6.6" ry="10.5" transform="rotate(45)" fill="url(#pet)" stroke="#C2410C" stroke-width=".9"/><ellipse cx="0" cy="-15" rx="6.6" ry="10.5" transform="rotate(90)" fill="url(#pet)" stroke="#C2410C" stroke-width=".9"/><ellipse cx="0" cy="-15" rx="6.6" ry="10.5" transform="rotate(135)" fill="url(#pet)" stroke="#C2410C" stroke-width=".9"/><ellipse cx="0" cy="-15" rx="6.6" ry="10.5" transform="rotate(180)" fill="url(#pet)" stroke="#C2410C" stroke-width=".9"/><ellipse cx="0" cy="-15" rx="6.6" ry="10.5" transform="rotate(225)" fill="url(#pet)" stroke="#C2410C" stroke-width=".9"/><ellipse cx="0" cy="-15" rx="6.6" ry="10.5" transform="rotate(270)" fill="url(#pet)" stroke="#C2410C" stroke-width=".9"/><ellipse cx="0" cy="-15" rx="6.6" ry="10.5" transform="rotate(315)" fill="url(#pet)" stroke="#C2410C" stroke-width=".9"/><ellipse cx="0" cy="-10.5" rx="3.6" ry="6" transform="rotate(22.5)" fill="#E11D48" opacity=".92"/><ellipse cx="0" cy="-10.5" rx="3.6" ry="6" transform="rotate(67.5)" fill="#E11D48" opacity=".92"/><ellipse cx="0" cy="-10.5" rx="3.6" ry="6" transform="rotate(112.5)" fill="#E11D48" opacity=".92"/><ellipse cx="0" cy="-10.5" rx="3.6" ry="6" transform="rotate(157.5)" fill="#E11D48" opacity=".92"/><ellipse cx="0" cy="-10.5" rx="3.6" ry="6" transform="rotate(202.5)" fill="#E11D48" opacity=".92"/><ellipse cx="0" cy="-10.5" rx="3.6" ry="6" transform="rotate(247.5)" fill="#E11D48" opacity=".92"/><ellipse cx="0" cy="-10.5" rx="3.6" ry="6" transform="rotate(292.5)" fill="#E11D48" opacity=".92"/><ellipse cx="0" cy="-10.5" rx="3.6" ry="6" transform="rotate(337.5)" fill="#E11D48" opacity=".92"/>
<circle r="13.2" fill="#FFB224" stroke="#C2410C" stroke-width=".9"/><circle cx="10.80" cy="0.00" r="1.7" fill="#FFF7E0"/><circle cx="9.35" cy="5.40" r="1.7" fill="#FFF7E0"/><circle cx="5.40" cy="9.35" r="1.7" fill="#FFF7E0"/><circle cx="0.00" cy="10.80" r="1.7" fill="#FFF7E0"/><circle cx="-5.40" cy="9.35" r="1.7" fill="#FFF7E0"/><circle cx="-9.35" cy="5.40" r="1.7" fill="#FFF7E0"/><circle cx="-10.80" cy="0.00" r="1.7" fill="#FFF7E0"/><circle cx="-9.35" cy="-5.40" r="1.7" fill="#FFF7E0"/><circle cx="-5.40" cy="-9.35" r="1.7" fill="#FFF7E0"/><circle cx="-0.00" cy="-10.80" r="1.7" fill="#FFF7E0"/><circle cx="5.40" cy="-9.35" r="1.7" fill="#FFF7E0"/><circle cx="9.35" cy="-5.40" r="1.7" fill="#FFF7E0"/>
<circle r="8.6" fill="url(#core)" stroke="#fff" stroke-width="1.8"/>
<path d="M-4.2 .2 L-1.2 3.3 L4.6 -3.6" stroke="#FFE08A" stroke-width="2.7" fill="none" stroke-linecap="round" stroke-linejoin="round"/></g>
<path d="M103 12 L104.96 17.04 L110 19 L104.96 20.96 L103 26 L101.04 20.96 L96 19 L101.04 17.04Z" fill="#FFE08A" opacity="1"/><path d="M114 30.8 L114.896 33.104 L117.2 34 L114.896 34.896 L114 37.2 L113.104 34.896 L110.8 34 L113.104 33.104Z" fill="#fff" opacity="0.85"/><path d="M19 99.8 L20.176000000000002 102.824 L23.2 104 L20.176000000000002 105.176 L19 108.2 L17.823999999999998 105.176 L14.8 104 L17.823999999999998 102.824Z" fill="#fff" opacity="0.7"/>
</svg>